<svg width="24" height="24" viewBox="0 0 24 24" fill="none" xmlns="http://www.w3.org/2000/svg">
<g clip-path="url(#clip0_23127:124)">
<path d="M12.0011 21.0015C12.5081 21.0015 12.9356 21.381 12.9941 21.885L13.0016 22.002V23.0025C13.0016 23.532 12.5891 23.9685 12.0596 24C11.5301 24.0315 11.0711 23.6445 11.0081 23.1195L11.0006 23.0025V22.002C11.0006 21.45 11.4491 21.0015 12.0011 21.0015V21.0015ZM19.7141 18.3015L19.8086 18.384L20.5091 19.0845C20.8811 19.458 20.8991 20.0565 20.5511 20.4525C20.2031 20.8485 19.6061 20.9055 19.1891 20.5815L19.0946 20.499L18.3941 19.7985C18.0221 19.425 18.0041 18.8265 18.3521 18.4305C18.7001 18.0345 19.2971 17.9775 19.7141 18.3015ZM5.60659 18.384C5.96359 18.741 5.99809 19.3065 5.68909 19.704L5.60659 19.7985L4.90609 20.499C4.53259 20.871 3.93409 20.889 3.53809 20.541C3.14209 20.193 3.08509 19.596 3.40909 19.179L3.49159 19.0845L4.19209 18.384C4.58209 17.994 5.21509 17.994 5.60659 18.384V18.384ZM12.0011 6C13.5926 6 15.1189 6.63222 16.2443 7.75758C17.3696 8.88294 18.0018 10.4093 18.0018 12.0007C18.0018 13.5922 17.3696 15.1186 16.2443 16.2439C15.1189 17.3693 13.5926 18.0015 12.0011 18.0015C10.4096 18.0015 8.88327 17.3693 7.75792 16.2439C6.63256 15.1186 6.00034 13.5922 6.00034 12.0007C6.00034 10.4093 6.63256 8.88294 7.75792 7.75758C8.88327 6.63222 10.4096 6 12.0011 6V6ZM12.0011 7.9995C10.9405 8.00069 9.9236 8.42255 9.17362 9.17253C8.42364 9.92252 8.00178 10.9394 8.00059 12C8.00178 13.0606 8.42364 14.0775 9.17362 14.8275C9.9236 15.5774 10.9405 15.9993 12.0011 16.0005C13.0617 15.9993 14.0786 15.5774 14.8286 14.8275C15.5785 14.0775 16.0004 13.0606 16.0016 12C16.0004 10.9394 15.5785 9.92252 14.8286 9.17253C14.0786 8.42255 13.0617 8.00069 12.0011 7.9995ZM2.00059 10.9995C2.53009 10.9995 2.96659 11.412 2.99809 11.9415C3.02959 12.471 2.64259 12.93 2.11759 12.993L2.00059 13.0005H1.00009C0.470587 13.0005 0.0340869 12.588 0.00258692 12.0585C-0.0289131 11.529 0.358087 11.07 0.883087 11.007L1.00009 10.9995H2.00059V10.9995ZM23.0021 10.9995C23.5316 10.9995 23.9681 11.412 23.9996 11.9415C24.0311 12.471 23.6441 12.93 23.1191 12.993L23.0021 13.0005H22.0016C21.4721 13.0005 21.0356 12.588 21.0041 12.0585C20.9726 11.529 21.3596 11.07 21.8846 11.007L22.0016 10.9995H23.0021V10.9995ZM4.81309 3.4005L4.90759 3.483L5.60809 4.1835C5.98009 4.557 5.99809 5.1555 5.65009 5.5515C5.30209 5.9475 4.70509 6.0045 4.28809 5.6805L4.19359 5.598L3.49309 4.8975C3.12109 4.524 3.10309 3.9255 3.45109 3.5295C3.79909 3.1335 4.39609 3.0765 4.81309 3.4005ZM20.5091 3.483C20.8661 3.84 20.9006 4.4055 20.5916 4.803L20.5091 4.8975L19.8086 5.598C19.4351 5.97 18.8366 5.988 18.4406 5.64C18.0446 5.292 17.9876 4.695 18.3116 4.278L18.3941 4.1835L19.0946 3.483C19.4846 3.093 20.1176 3.093 20.5091 3.483V3.483ZM12.0011 0C12.5081 0 12.9356 0.3795 12.9941 0.8835L13.0016 1.0005V2.001C13.0016 2.5305 12.5891 2.967 12.0596 2.9985C11.5301 3.03 11.0711 2.643 11.0081 2.118L11.0006 2.001V1.0005C11.0006 0.4485 11.4491 0 12.0011 0V0Z" fill="black"/>
</g>
<defs>
<clipPath id="clip0_23127:124">
<rect width="24" height="24" fill="white"/>
</clipPath>
</defs>
</svg>
