<svg width="24" height="24" viewBox="0 0 24 24" fill="none" xmlns="http://www.w3.org/2000/svg">
<g clip-path="url(#clip0_23127:122)">
<path d="M9.87598 0.00752451C10.74 -0.166475 11.394 0.775524 10.9305 1.52552C8.53648 5.39252 9.11698 10.521 12.3855 13.8705C14.8875 16.2825 18.354 17.298 21.795 16.725C21.9833 16.6924 22.1771 16.7142 22.3535 16.7879C22.5299 16.8615 22.6816 16.9839 22.7909 17.1408C22.9002 17.2976 22.9625 17.4823 22.9705 17.6733C22.9784 17.8643 22.9318 18.0536 22.836 18.219C22.4175 18.951 21.8055 19.7025 21.063 20.445C16.326 25.167 8.66098 25.167 3.92248 20.445C-0.802517 15.72 -0.802517 8.02952 3.89998 3.32852L4.17448 3.04652C5.73377 1.49352 7.71741 0.436205 9.87598 0.00752451V0.00752451ZM8.14948 2.68502L7.92748 2.79152C6.9601 3.28131 6.08631 3.93729 5.34598 4.72952V4.72952L5.13448 4.94702C3.33768 6.86206 2.3552 9.40028 2.39438 12.026C2.43356 14.6517 3.49134 17.1595 5.34448 19.02C7.24212 20.9102 9.81137 21.9714 12.4897 21.9714C15.1681 21.9714 17.7373 20.9102 19.635 19.02V19.02L19.7595 18.8925L19.5465 18.891C16.4683 18.8139 13.52 17.6343 11.238 15.567L10.9635 15.309C7.65598 11.8995 6.63598 6.99752 8.12398 2.75252L8.14798 2.68352L8.14948 2.68502V2.68502ZM21.9405 2.92352C22.887 2.13902 24.1995 3.50852 23.277 4.42802L23.16 4.55702C22.2615 5.64902 22.3005 8.07152 23.277 9.04652L23.358 9.13352C24.1425 10.08 22.773 11.3925 21.8535 10.47L21.7245 10.353C20.6325 9.45452 18.21 9.49352 17.235 10.47L17.148 10.551C16.2015 11.3355 14.889 9.96602 15.8115 9.04652L15.9285 8.91752C16.827 7.82552 16.788 5.40302 15.8115 4.42802L15.7305 4.34102C14.946 3.39452 16.3155 2.08202 17.235 3.00452L17.364 3.12152C18.456 4.02002 20.8785 3.98102 21.8535 3.00452L21.9405 2.92352V2.92352ZM20.583 5.69702L20.4405 5.71952C19.8457 5.80067 19.2427 5.80067 18.648 5.71952V5.71952L18.504 5.69702L18.5265 5.84252C18.6076 6.43727 18.6076 7.04028 18.5265 7.63502V7.63502L18.504 7.77902L18.648 7.75652C19.2427 7.67538 19.8457 7.67538 20.4405 7.75652V7.75652L20.583 7.77902L20.5515 7.63352C20.4703 7.03878 20.4703 6.43577 20.5515 5.84102V5.84102L20.574 5.69552L20.5845 5.69702H20.583Z" fill="black"/>
</g>
<defs>
<clipPath id="clip0_23127:122">
<rect width="24" height="24" fill="white"/>
</clipPath>
</defs>
</svg>
